<svg width="644" height="411" viewBox="0 0 644 411" fill="none" xmlns="http://www.w3.org/2000/svg">
    <g clip-path="url(#clip0)">
        <path d="M563.112 50.4996H446.907C440.991 50.4996 436.195 55.294 436.195 61.2082V227.313C436.195 233.227 440.991 238.022 446.907 238.022H563.112C569.028 238.022 573.824 233.227 573.824 227.313V61.2082C573.824 55.294 569.028 50.4996 563.112 50.4996Z" stroke="#316BFF" stroke-width="2.11002" stroke-miterlimit="10"/>
        <path d="M558.097 69.8185H453.333C450.375 69.8185 447.977 72.2157 447.977 75.1728V97.4458C447.977 100.403 450.375 102.8 453.333 102.8H558.097C561.056 102.8 563.454 100.403 563.454 97.4458V75.1728C563.454 72.2157 561.056 69.8185 558.097 69.8185Z" stroke="#316BFF" stroke-width="2.11002" stroke-miterlimit="10"/>
        <path d="M505.01 83.7129C506.895 83.7129 508.422 82.1857 508.422 80.3021C508.422 78.4184 506.895 76.8913 505.01 76.8913C503.126 76.8913 501.598 78.4184 501.598 80.3021C501.598 82.1857 503.126 83.7129 505.01 83.7129Z" fill="#316BFF"/>
        <path d="M495.477 95.7338C495.477 93.206 496.482 90.7818 498.269 88.9946C500.058 87.2069 502.483 86.203 505.011 86.203C507.54 86.203 509.965 87.2069 511.754 88.9946C513.541 90.7818 514.546 93.206 514.546 95.7338H495.477Z" fill="#316BFF"/>
        <path d="M459.528 144H549.318" stroke="#316BFF" stroke-width="2.11002" stroke-miterlimit="10"/>
        <path d="M459.528 152.836H549.318" stroke="#316BFF" stroke-width="2.11002" stroke-miterlimit="10"/>
        <path d="M459.528 162.476H549.318" stroke="#316BFF" stroke-width="2.11002" stroke-miterlimit="10"/>
        <path d="M480.38 170.836H528.458" stroke="#316BFF" stroke-width="2.11002" stroke-miterlimit="10"/>
        <path d="M573.832 171.653C581.751 181.602 589.283 193.932 596.095 209.126C637.568 301.707 585.73 348.692 585.73 348.692" stroke="#316BFF" stroke-width="2.11002" stroke-miterlimit="10"/>
        <path d="M140.658 245.062C140.658 245.062 79.118 175.283 155.858 140.731C232.598 106.179 247.791 101.378 242.255 65.436C236.718 29.4941 280.238 -7.10423 348.68 17.0801C417.121 41.2645 418.492 86.8403 413.638 122.074C410.883 142.159 422.284 146.986 436.171 145.976" stroke="#316BFF" stroke-width="2.11002" stroke-miterlimit="10"/>
        <path d="M569.493 378.804C569.337 382.656 568.339 386.427 566.57 389.853C566.501 390.024 566.419 390.189 566.325 390.349C563.222 395.921 558.881 400.708 553.636 404.339L553.45 404.468C548.715 407.634 543.39 409.812 537.793 410.871C537.793 410.923 537.793 410.871 537.793 410.871H597.369C597.369 410.871 589.399 297.254 516.148 241.973C445.261 188.482 378.892 214.262 374.682 215.987C375.986 219.668 376.569 223.566 376.401 227.468C376.401 227.468 381.731 230.241 382.62 240.171C383.508 250.101 385.362 277.709 367.536 282.909C367.536 282.909 351.531 282.516 347.301 276.377C343.072 270.238 342.054 271.486 340.393 273.044C339.106 274.221 331.335 278.43 327.749 280.361C328.203 280.382 328.653 280.445 329.095 280.547C329.095 280.547 331.149 297.871 356.276 325.023C357.127 325.919 357.931 326.86 358.684 327.841C362.478 331.157 366.742 334.542 371.476 337.996L400.15 358.969C400.797 359.52 401.565 359.91 402.39 360.109C403.995 360.513 405.672 360.528 407.283 360.154C410.618 359.51 433.389 357.187 448.125 355.72C448.46 355.72 448.814 355.655 449.143 355.617L451.074 355.43C451.383 355.43 451.718 355.366 451.988 355.346L453.726 355.179C454.576 355.095 455.342 355.012 456.05 354.954L457.982 354.767C459.688 354.6 460.699 354.497 460.782 354.497C464.293 354.397 467.793 354.057 471.257 353.48C474.572 352.837 477.598 351.8 478.384 350.082C478.532 349.72 478.588 349.326 478.545 348.937C478.367 347.843 477.91 346.815 477.218 345.951C474.193 341.89 467.162 338.408 466.647 338.157C466.633 338.152 466.617 338.152 466.602 338.157L466.461 338.054L424.614 305.555H424.569C424.569 305.555 430.872 238.344 488.304 254.883C488.304 254.883 488.575 255.069 489.071 255.481C491.311 257.206 498.36 262.921 508.725 273.597C508.996 273.887 509.286 274.176 509.575 274.485C510.676 275.605 511.758 276.77 512.833 277.909C520.108 285.683 528.715 295.587 538.211 307.936L538.275 308.001C549.156 322.159 556.997 335.133 562.096 346.613V346.652C567.613 359.13 569.937 369.82 569.48 378.347C569.495 378.498 569.499 378.651 569.493 378.804ZM396.268 263.281C394.568 243.698 404.103 236.606 404.637 236.214C391.079 260.733 416.226 298.315 417.108 299.77C416.387 299.165 397.968 282.858 396.268 263.281Z" fill="#316BFF"/>
        <path d="M360.254 259.439C359.549 259.957 358.813 260.434 358.052 260.867L353.636 253.145C363.821 247.939 366.679 238.762 362.198 233.723C360.946 232.344 359.33 231.345 357.537 230.84C353.031 229.475 349.908 231.483 347.79 234.18C346.062 236.523 344.794 239.175 344.056 241.992L341.906 217.203L341.739 215.272C341.739 215.272 337.052 212.949 324.356 215.021C311.661 217.094 309.324 224.102 303.871 220.993C298.418 217.885 295.328 218.136 295.328 218.136C293.776 223.831 289.624 223.831 289.624 223.831C288.64 223.713 287.674 223.478 286.746 223.13C280.855 217.718 279.259 208.328 279.259 208.328C285.439 207.563 285.916 201.616 285.207 196.745C288.632 198.778 293.461 198.92 300.24 194.57C319.689 182.136 339.634 188.868 346.644 189.904C349.773 190.361 353.198 189.26 356.037 187.973C356.404 188.63 356.915 189.195 357.531 189.627C362.263 192.923 366.167 197.271 368.932 202.331C387.184 236.432 367.175 254.541 360.254 259.439Z" fill="#316BFF"/>
        <path d="M287.396 410.884H294.735C297.874 410.881 300.884 409.632 303.103 407.414C305.323 405.195 306.571 402.187 306.575 399.049V390.838C306.575 390.089 306.427 389.348 306.14 388.657C305.854 387.965 305.433 387.337 304.903 386.808C304.374 386.279 303.745 385.86 303.053 385.574C302.361 385.288 301.62 385.142 300.871 385.142H256.977C256.978 386.89 256.635 388.621 255.967 390.236C255.298 391.851 254.318 393.319 253.081 394.554C251.844 395.79 250.376 396.769 248.76 397.437C247.144 398.105 245.412 398.447 243.664 398.444H85.0527C85.054 401.743 86.3661 404.906 88.6992 407.238C91.0329 409.571 94.1971 410.882 97.4972 410.884H312.523C312.804 410.885 313.082 410.83 313.342 410.723C313.602 410.616 313.838 410.459 314.036 410.26C314.235 410.062 314.392 409.825 314.5 409.566C314.607 409.307 314.661 409.028 314.661 408.748V395.42C314.661 392.83 315.69 390.347 317.521 388.516C319.353 386.686 321.836 385.657 324.427 385.657C327.017 385.657 329.501 386.686 331.333 388.516C333.164 390.347 334.193 392.83 334.193 395.42V408.748C334.192 409.027 334.247 409.305 334.354 409.565C334.461 409.824 334.617 410.059 334.815 410.258C335.013 410.456 335.248 410.614 335.507 410.721C335.766 410.829 336.044 410.884 336.324 410.884H597.369C597.369 410.884 589.399 297.241 516.148 241.967C445.26 188.475 378.892 214.256 374.681 215.98L374.475 216.058" stroke="#316BFF" stroke-width="2.11002" stroke-miterlimit="10"/>
        <path d="M301.285 243.794C301.282 244.509 301.068 245.207 300.669 245.8C300.27 246.392 299.704 246.854 299.044 247.126C298.383 247.398 297.656 247.468 296.955 247.327C296.254 247.187 295.61 246.842 295.106 246.337C294.601 245.831 294.257 245.187 294.117 244.486C293.978 243.785 294.05 243.059 294.323 242.399C294.596 241.739 295.059 241.174 295.653 240.777C296.246 240.379 296.945 240.166 297.66 240.165C297.94 240.166 298.218 240.201 298.491 240.268C298.115 240.386 297.788 240.621 297.557 240.938C297.325 241.255 297.201 241.638 297.203 242.031C297.201 242.277 297.248 242.522 297.341 242.75C297.434 242.978 297.571 243.186 297.745 243.361C297.918 243.536 298.124 243.676 298.352 243.771C298.58 243.866 298.824 243.916 299.07 243.917C299.521 243.908 299.954 243.741 300.295 243.446C300.636 243.151 300.863 242.746 300.937 242.301C301.159 242.768 301.277 243.278 301.285 243.794Z" fill="#316BFF"/>
        <path d="M326.398 244.805C326.399 245.523 326.187 246.226 325.79 246.824C325.391 247.421 324.825 247.888 324.161 248.163C323.498 248.439 322.768 248.512 322.063 248.372C321.358 248.233 320.711 247.888 320.202 247.38C319.694 246.873 319.347 246.227 319.206 245.522C319.066 244.818 319.137 244.087 319.412 243.424C319.686 242.76 320.152 242.193 320.749 241.794C321.347 241.395 322.049 241.182 322.767 241.182C322.941 241.181 323.113 241.201 323.282 241.24C322.961 241.388 322.689 241.625 322.499 241.923C322.308 242.22 322.207 242.566 322.207 242.919C322.185 243.414 322.36 243.898 322.695 244.264C323.029 244.629 323.495 244.847 323.99 244.869C324.485 244.892 324.969 244.716 325.335 244.382C325.701 244.048 325.919 243.582 325.941 243.087C326.238 243.611 326.395 244.203 326.398 244.805Z" fill="#316BFF"/>
        <path d="M355.362 182.877C354.944 185.695 355.465 188.167 357.538 189.634C362.271 192.93 366.174 197.278 368.94 202.337C390.713 243.003 358.054 260.9 358.054 260.9L353.637 253.177C366.352 246.691 367.652 233.987 357.538 230.872C347.425 227.757 344.057 242.025 344.057 242.025L341.74 215.286C341.74 215.286 337.053 212.962 324.357 215.035C311.662 217.107 309.325 224.115 303.872 221.007C298.419 217.898 295.329 218.149 295.329 218.149C293.777 223.845 289.625 223.845 289.625 223.845C277.457 222.294 274.599 205.465 274.599 205.465C280.773 204.693 281.249 198.746 280.548 193.881C283.966 195.915 288.801 196.063 295.58 191.706C315.029 179.273 334.974 186.011 341.978 187.047C346.819 187.748 352.375 184.788 355.362 182.877Z" stroke="#316BFF" stroke-width="2.11002" stroke-linecap="round" stroke-linejoin="round"/>
        <path d="M366.59 384.537L371.399 382.607L375.005 392.33L374.438 409.976L369.565 410.858L351.069 410.06C351.069 410.06 352.356 399.3 356.29 394.184C360.223 389.068 366.59 384.537 366.59 384.537Z" fill="#316BFF"/>
        <path d="M282.374 229.791C282.374 229.791 287.299 220.955 297.664 221.875" stroke="#316BFF" stroke-width="2.11002" stroke-miterlimit="10"/>
        <path d="M317.964 221.875C317.964 221.875 329.81 219.217 333.956 225.801" stroke="#316BFF" stroke-width="2.11002" stroke-miterlimit="10"/>
        <path d="M336.319 261.878C336.319 261.878 329.238 257.779 324.055 264.671" stroke="#316BFF" stroke-width="2.11002" stroke-miterlimit="10"/>
        <path d="M291.568 223.291C291.568 223.291 286.527 282.568 324.118 281.474C330.556 281.287 336.955 277.059 343.071 270.257" stroke="#316BFF" stroke-width="2.11002" stroke-miterlimit="10"/>
        <path d="M358.053 275.65L343.072 270.257C343.072 270.257 346.787 282.124 365.186 283.031C383.586 283.939 389.76 241.729 376.24 224.745" stroke="#316BFF" stroke-width="2.11002" stroke-linejoin="round"/>
        <path d="M416.623 394.564C416.623 394.564 402.891 405.703 412.22 410.884" stroke="#316BFF" stroke-width="2.11002" stroke-miterlimit="10"/>
        <path d="M406.004 384.196C406.004 384.196 382.184 397.672 402.637 410.884" stroke="#316BFF" stroke-width="2.11002" stroke-miterlimit="10"/>
        <path d="M397.969 373.835C397.969 373.835 366.352 388.637 390.713 410.884" stroke="#316BFF" stroke-width="2.11002" stroke-miterlimit="10"/>
        <path d="M530.924 410.884C530.924 410.884 569.281 410.884 569.796 373.835C570.312 336.787 495.419 243.756 446.955 230.814C398.49 217.873 396.411 253.338 396.411 254.793C396.411 256.247 393.565 271.525 406.003 287.826C415.609 300.426 458.034 331.883 476.859 345.552C477.55 346.055 478.072 346.756 478.356 347.563C478.638 348.369 478.669 349.242 478.443 350.067C478.218 350.891 477.746 351.627 477.092 352.178C476.437 352.727 475.63 353.065 474.779 353.146L391.524 361.138H391.473C390.687 361.28 361.305 366.699 352.356 375.901C352.356 375.901 347.341 379.615 349.935 385.316C352.53 391.018 360.5 389.139 360.719 388.927" stroke="#316BFF" stroke-width="2.11002" stroke-miterlimit="10"/>
        <path opacity="0.26" d="M322.774 251.536C328.498 251.536 333.139 246.898 333.139 241.175C333.139 235.453 328.498 230.814 322.774 230.814C317.049 230.814 312.409 235.453 312.409 241.175C312.409 246.898 317.049 251.536 322.774 251.536Z" fill="#FFFEFC"/>
        <path opacity="0.26" d="M296.469 250.513C302.193 250.513 306.834 245.874 306.834 240.152C306.834 234.429 302.193 229.791 296.469 229.791C290.745 229.791 286.104 234.429 286.104 240.152C286.104 245.874 290.745 250.513 296.469 250.513Z" fill="#FFFEFC"/>
        <path d="M386.063 382.903C382.419 381.886 376.464 380.972 370.329 382.941C367.329 383.907 364.561 385.483 362.198 387.569C361.683 388.019 361.187 388.476 360.711 388.933C359.684 389.939 358.714 391.002 357.807 392.118C357.688 392.266 357.518 392.364 357.331 392.395C355.046 392.71 340 395.092 340.077 402.692C340.148 409.52 347.629 410.64 350.204 410.82C350.31 410.829 350.417 410.817 350.518 410.784C350.62 410.75 350.713 410.696 350.792 410.624C350.871 410.553 350.935 410.466 350.979 410.369C351.023 410.272 351.046 410.167 351.048 410.06C351.048 407.628 351.601 400.002 357.621 392.331" stroke="#316BFF" stroke-width="2.11002" stroke-miterlimit="10"/>
        <path d="M250.507 329.263C252.271 343.479 241.217 349.908 229.133 350.86" stroke="#316BFF" stroke-width="2.11002" stroke-miterlimit="10"/>
        <path d="M211.571 347.894C206.963 345.406 203.231 341.563 200.88 336.886C198.528 332.208 197.671 326.921 198.424 321.74C200.356 308.065 211.944 297.575 223.288 290.921C247.108 276.95 300.787 287.06 309.807 289.119C316.721 290.702 322.502 285.297 324.846 282.684C324.945 282.573 325.074 282.493 325.218 282.453C325.361 282.413 325.513 282.416 325.656 282.46C325.798 282.504 325.925 282.588 326.021 282.702C326.117 282.816 326.178 282.954 326.198 283.102C331.148 312.062 388.645 351.369 401.946 360.166" stroke="#316BFF" stroke-width="2.11002" stroke-miterlimit="10"/>
        <path d="M265.012 319.43L245.975 331.239C244.841 331.945 243.57 332.406 242.247 332.591C240.924 332.777 239.576 332.683 238.291 332.315C237.006 331.947 235.813 331.315 234.788 330.458C233.762 329.601 232.928 328.538 232.339 327.339C231.278 325.185 231.067 322.711 231.75 320.409C232.432 318.107 233.958 316.146 236.022 314.919L264.993 297.666" stroke="#316BFF" stroke-width="2.11002" stroke-miterlimit="10"/>
        <path d="M322.774 251.536C328.498 251.536 333.139 246.898 333.139 241.175C333.139 235.453 328.498 230.814 322.774 230.814C317.049 230.814 312.409 235.453 312.409 241.175C312.409 246.898 317.049 251.536 322.774 251.536Z" stroke="#316BFF" stroke-width="2.11002" stroke-miterlimit="10"/>
        <path d="M296.469 248.962C301.337 248.962 305.283 245.017 305.283 240.152C305.283 235.286 301.337 231.341 296.469 231.341C291.601 231.341 287.656 235.286 287.656 240.152C287.656 245.017 291.601 248.962 296.469 248.962Z" stroke="#FFFEFC" stroke-width="2.11002" stroke-miterlimit="10"/>
        <path d="M296.469 250.513C302.193 250.513 306.834 245.874 306.834 240.152C306.834 234.429 302.193 229.791 296.469 229.791C290.745 229.791 286.104 234.429 286.104 240.152C286.104 245.874 290.745 250.513 296.469 250.513Z" stroke="#316BFF" stroke-width="2.11002" stroke-miterlimit="10"/>
        <path d="M312.46 240.152H306.834" stroke="#316BFF" stroke-width="2.11002" stroke-miterlimit="10"/>
        <path d="M312.46 254.793H308.752C308.519 254.793 308.288 254.742 308.077 254.643C307.866 254.544 307.679 254.399 307.531 254.219C307.381 254.04 307.274 253.83 307.216 253.604C307.158 253.378 307.15 253.143 307.194 252.914L309.647 240.152" stroke="#316BFF" stroke-width="2.11002" stroke-miterlimit="10"/>
        <path d="M238.058 290.155C238.058 290.155 224.841 293.006 220.18 312.956C217.347 325.067 213.459 340.519 210.845 350.79C210.509 352.107 210.48 353.484 210.757 354.814C211.035 356.145 211.614 357.395 212.449 358.468C213.283 359.542 214.352 360.411 215.574 361.008C216.795 361.606 218.137 361.917 219.497 361.917C221.528 361.917 223.498 361.225 225.083 359.956C226.667 358.687 227.772 356.915 228.214 354.934L233.745 330.132" stroke="#316BFF" stroke-width="2.11002" stroke-miterlimit="10"/>
        <path d="M250.139 336.787C250.139 336.787 264.013 328.498 291.342 336.787C318.671 345.075 350.088 350.7 360.453 328.716" stroke="#316BFF" stroke-width="2.11002" stroke-miterlimit="10"/>
        <path d="M370.338 382.941C370.338 382.941 379.995 393.959 374.123 410.884" stroke="#316BFF" stroke-width="2.11002" stroke-miterlimit="10"/>
        <path d="M51.2297 245.937H203.808C208.723 245.931 213.496 247.577 217.36 250.612C221.225 253.648 223.955 257.895 225.111 262.669L249.401 363.229C250.057 365.943 250.088 368.77 249.492 371.496C248.897 374.224 247.689 376.78 245.962 378.974C244.234 381.167 242.032 382.94 239.52 384.159C237.008 385.378 234.252 386.011 231.459 386.011H79.2731C74.3681 386.015 69.6034 384.373 65.7439 381.347C61.8846 378.321 59.1537 374.087 57.9895 369.324L33.3065 268.783C32.64 266.066 32.5999 263.234 33.1893 260.5C33.7787 257.767 34.9821 255.202 36.7086 253.002C38.4351 250.801 40.6395 249.022 43.1552 247.798C45.6708 246.573 48.4319 245.938 51.2297 245.937Z" fill="#316BFF"/>
        <path d="M56.7848 250.262H199.938C204.55 250.268 209.026 251.82 212.65 254.671C216.274 257.521 218.837 261.505 219.928 265.984L242.731 360.321C243.347 362.866 243.376 365.517 242.818 368.076C242.259 370.635 241.128 373.033 239.507 375.091C237.887 377.149 235.821 378.812 233.464 379.955C231.108 381.099 228.522 381.693 225.902 381.693H83.0963C78.499 381.683 74.0375 380.136 70.4207 377.299C66.8039 374.462 64.2409 370.497 63.139 366.035L39.9626 271.692C39.3367 269.143 39.299 266.486 39.8523 263.92C40.4055 261.355 41.5352 258.948 43.1559 256.884C44.7766 254.819 46.8458 253.15 49.2069 252.003C51.5682 250.856 54.1595 250.26 56.7848 250.262Z" fill="#316BFF"/>
        <path d="M51.2297 245.937H203.808C208.723 245.931 213.496 247.577 217.36 250.612C221.225 253.648 223.955 257.895 225.111 262.669L249.401 363.229C250.057 365.943 250.088 368.77 249.492 371.496C248.897 374.224 247.689 376.78 245.962 378.974C244.234 381.167 242.032 382.94 239.52 384.159C237.008 385.378 234.252 386.011 231.459 386.011H79.2731C74.3681 386.015 69.6034 384.373 65.7439 381.347C61.8846 378.321 59.1537 374.087 57.9895 369.324L33.3065 268.783C32.64 266.066 32.5999 263.234 33.1893 260.5C33.7787 257.767 34.9821 255.202 36.7086 253.002C38.4351 250.801 40.6395 249.022 43.1552 247.798C45.6708 246.573 48.4319 245.938 51.2297 245.937Z" stroke="#316BFF" stroke-width="2.11002" stroke-miterlimit="10"/>
        <path d="M76.8125 286.937C79.3233 286.159 80.5143 282.832 79.4842 279.505C78.4542 276.177 75.5764 274.118 73.0463 274.897C70.5162 275.675 69.3445 279.003 70.381 282.323C71.4175 285.644 74.3081 287.716 76.8125 286.937Z" fill="#316BFF"/>
        <path d="M87.8341 286.178H102.603C104.437 286.178 106.279 286.178 108.113 286.178H108.377C108.894 286.192 109.408 286.096 109.884 285.895C110.214 285.732 110.493 285.485 110.695 285.178C110.897 284.871 111.014 284.517 111.033 284.15C111.053 283.783 110.974 283.418 110.806 283.091C110.638 282.765 110.387 282.489 110.077 282.291C109.731 282.134 109.415 281.916 109.144 281.648C108.965 281.365 108.842 281.051 108.783 280.721C108.442 279.79 107.783 279.008 106.922 278.514C106.297 278.093 105.592 277.803 104.851 277.66C104.11 277.517 103.348 277.525 102.609 277.684C101.882 277.868 101.215 278.24 100.678 278.765C100.221 279.215 100.13 279.82 99.7764 280.322C99.5446 280.65 99.3966 280.547 99.0811 280.367C98.7656 280.187 98.5918 280.052 98.3343 279.923C97.8264 279.651 97.2991 279.417 96.757 279.222C95.6529 278.813 94.4754 278.64 93.2999 278.713C91.2333 278.874 89.1732 280.103 88.4521 282.047C87.8025 282.056 87.1774 282.296 86.6888 282.724C86.2001 283.152 85.8808 283.741 85.7868 284.383C85.7443 284.631 85.7604 284.885 85.8345 285.125C85.9085 285.366 86.0373 285.586 86.2117 285.766C86.6817 286.104 87.2611 286.25 87.8341 286.178Z" fill="#F5F6F6"/>
        <path d="M208.519 326.104C208.517 326.879 208.208 327.621 207.66 328.168C207.113 328.716 206.37 329.024 205.596 329.025H190.081C187.718 326.657 186.997 323.33 188.42 320.923H202.081C203.381 320.924 204.654 321.302 205.745 322.011C206.835 322.721 207.695 323.731 208.223 324.92C208.401 325.29 208.501 325.693 208.519 326.104Z" fill="#316BFF"/>
        <path d="M201.366 329.025C201.286 329.18 201.193 329.329 201.089 329.469C199.055 332.243 194.651 332.5 191.233 330.003C190.824 329.707 190.439 329.38 190.08 329.025C187.718 326.657 186.997 323.33 188.42 320.923C188.499 320.77 188.591 320.624 188.696 320.485C190.711 317.692 195.134 317.448 198.533 319.925C198.945 320.229 199.335 320.562 199.699 320.923C202.081 323.291 202.77 326.618 201.366 329.025Z" fill="#FFFEFC"/>
        <path d="M215.646 343.994C215.639 344.77 215.326 345.512 214.775 346.059C214.224 346.606 213.48 346.914 212.704 346.916H99.8985C101.341 344.496 100.62 341.182 98.2504 338.82H209.246C210.548 338.819 211.822 339.198 212.911 339.911C214.001 340.623 214.86 341.637 215.382 342.829C215.548 343.196 215.638 343.592 215.646 343.994Z" fill="#316BFF"/>
        <path d="M99.9005 346.884H85.8466C84.5455 346.885 83.272 346.507 82.1821 345.797C81.0915 345.088 80.2308 344.077 79.7048 342.888C79.5393 342.515 79.4511 342.111 79.4473 341.703C79.446 341.32 79.5213 340.94 79.6681 340.586C79.8149 340.231 80.0299 339.909 80.3016 339.638C80.5733 339.367 80.8958 339.152 81.2512 339.006C81.6059 338.861 81.9864 338.787 82.3701 338.788H98.2524C100.622 341.15 101.343 344.464 99.9005 346.884Z" fill="#316BFF"/>
        <path d="M99.8982 346.884C99.8326 347.042 99.7457 347.191 99.6407 347.328C97.6257 350.121 93.2028 350.359 89.7972 347.881C89.3871 347.577 89.0001 347.244 88.6383 346.884C86.2885 344.515 85.5674 341.208 86.9709 338.788C87.0495 338.632 87.1422 338.483 87.2477 338.344C89.2821 335.57 93.6856 335.313 97.1042 337.803C97.5123 338.1 97.8954 338.429 98.2501 338.788C100.619 341.15 101.34 344.464 99.8982 346.884Z" fill="#FFFEFC"/>
        <path d="M109.852 364.587H91.9936C90.6932 364.586 89.4204 364.208 88.3304 363.498C87.2405 362.789 86.3798 361.779 85.8519 360.591C85.6748 360.232 85.5737 359.839 85.5557 359.439C85.5576 358.661 85.8673 357.916 86.4177 357.366C86.9675 356.816 87.7131 356.506 88.4914 356.504H108.172C106.801 358.937 107.503 362.245 109.852 364.587Z" fill="#316BFF"/>
        <path d="M221.768 361.711C221.758 362.483 221.442 363.219 220.889 363.759C220.336 364.298 219.591 364.596 218.819 364.588H109.851C107.501 362.219 106.78 358.911 108.184 356.492H215.369C216.67 356.491 217.944 356.87 219.034 357.583C220.124 358.294 220.982 359.309 221.504 360.501C221.674 360.882 221.764 361.294 221.768 361.711Z" fill="#316BFF"/>
        <path d="M121.131 364.587C121.052 364.743 120.959 364.893 120.854 365.032C118.839 367.825 114.416 368.062 111.017 365.584C110.604 365.281 110.214 364.948 109.851 364.587C107.501 362.219 106.78 358.911 108.184 356.491C108.264 356.337 108.357 356.188 108.461 356.047C110.495 353.273 114.899 353.029 118.317 355.507C118.726 355.802 119.11 356.131 119.463 356.491C121.832 358.879 122.553 362.206 121.131 364.587Z" fill="#FFFEFC"/>
    </g>
    <defs>
        <clipPath id="clip0">
            <rect width="644" height="411" fill="white"/>
        </clipPath>
    </defs>
</svg>
