<svg viewBox="0 0 25 25" fill="none" xmlns="http://www.w3.org/2000/svg">
<path d="M14.5 18.5V20.5L16.5 21.5V22.5H8.50004L8.49604 21.504L10.5 20.5V18.5H3.49204C3.36073 18.4992 3.23086 18.4725 3.10988 18.4215C2.9889 18.3704 2.87919 18.2959 2.78703 18.2024C2.69488 18.1088 2.62209 17.998 2.57284 17.8763C2.52359 17.7546 2.49885 17.6243 2.50004 17.493V4.507C2.50004 3.951 2.95504 3.5 3.49204 3.5H21.508C22.056 3.5 22.5 3.949 22.5 4.507V17.493C22.5 18.049 22.045 18.5 21.508 18.5H14.5ZM4.50004 5.5V14.5H20.5V5.5H4.50004Z" fill="#000"/>
</svg>
