<svg viewBox="0 0 90 41" fill="none" xmlns="http://www.w3.org/2000/svg">
    <path d="M30.8338 18.3645C32.3439 18.3645 33.3218 17.7059 33.8207 16.7546H33.9006V18.1716H36.5882V11.2795C36.5882 8.84469 34.5259 7.8202 32.2507 7.8202C29.8026 7.8202 28.1927 8.99105 27.8002 10.8538L30.4213 11.0666C30.6142 10.3881 31.2196 9.88914 32.2374 9.88914C33.2021 9.88914 33.7542 10.3748 33.7542 11.213V11.2529C33.7542 11.9115 33.0557 11.998 31.2795 12.171C29.2571 12.3572 27.441 13.0358 27.441 15.3176C27.441 17.34 28.8846 18.3645 30.8338 18.3645ZM31.6454 16.4086C30.7739 16.4086 30.1485 16.0028 30.1485 15.2245C30.1485 14.4262 30.8071 14.0337 31.805 13.894C32.4237 13.8075 33.4349 13.6611 33.7742 13.435V14.5193C33.7742 15.5904 32.8894 16.4086 31.6454 16.4086Z" fill="#316BFF"/>
    <path d="M41.6209 12.2641C41.6275 10.9469 42.4125 10.1752 43.5567 10.1752C44.6943 10.1752 45.3795 10.9203 45.3729 12.171V18.1716H48.2069V11.6654C48.2069 9.28376 46.8098 7.8202 44.681 7.8202C43.1642 7.8202 42.0666 8.56529 41.6076 9.75609H41.4878V7.95325H38.7869V18.1716H41.6209V12.2641Z" fill="#316BFF"/>
    <path d="M55.8756 7.95325H53.953V5.50512H51.119V7.95325H49.722V10.0821H51.119V15.4041C51.1057 17.4065 52.4695 18.3978 54.5251 18.3113C55.2569 18.2847 55.7758 18.1383 56.0619 18.0452L55.6162 15.9363C55.4764 15.9629 55.1771 16.0294 54.911 16.0294C54.3455 16.0294 53.953 15.8166 53.953 15.0316V10.0821H55.8756V7.95325Z" fill="#316BFF"/>
    <path d="M62.2687 18.3711C64.7967 18.3711 66.4997 17.1404 66.8989 15.2444L64.2778 15.0715C63.9917 15.8498 63.2599 16.2556 62.3153 16.2556C60.8983 16.2556 60.0002 15.3176 60.0002 13.7942V13.7875H66.9587V13.0092C66.9587 9.53656 64.8565 7.8202 62.1556 7.8202C59.1487 7.8202 57.1995 9.95567 57.1995 13.109C57.1995 16.3488 59.122 18.3711 62.2687 18.3711ZM60.0002 12.0313C60.0601 10.8671 60.9448 9.93571 62.2022 9.93571C63.4329 9.93571 64.2844 10.8138 64.2911 12.0313H60.0002Z" fill="#316BFF"/>
    <path d="M73.425 18.3711C76.5251 18.3711 78.4543 16.249 78.4543 13.1023C78.4543 9.93571 76.5251 7.8202 73.425 7.8202C70.3249 7.8202 68.3957 9.93571 68.3957 13.1023C68.3957 16.249 70.3249 18.3711 73.425 18.3711ZM73.4383 16.1758C72.008 16.1758 71.2762 14.8652 71.2762 13.0824C71.2762 11.2995 72.008 9.98228 73.4383 9.98228C74.842 9.98228 75.5738 11.2995 75.5738 13.0824C75.5738 14.8652 74.842 16.1758 73.4383 16.1758Z" fill="#316BFF"/>
    <path d="M83.1311 12.2641C83.1377 10.9469 83.9227 10.1752 85.067 10.1752C86.2046 10.1752 86.8898 10.9203 86.8831 12.171V18.1716H89.7171V11.6654C89.7171 9.28376 88.3201 7.8202 86.1913 7.8202C84.6745 7.8202 83.5768 8.56529 83.1178 9.75609H82.998V7.95325H80.2971V18.1716H83.1311V12.2641Z" fill="#316BFF"/>
    <path d="M9.92212 26.595C17.1682 26.595 23.0423 20.7209 23.0423 13.4748L23.0423 13.1202C23.0423 5.87413 17.1682 2.41551e-05 9.92212 2.28882e-05L9.92212 26.595Z" fill="#316BFF"/>
    <path d="M9.9221 6.7374C13.4472 6.73741 16.3049 9.67446 16.3049 13.2975C16.3049 16.9205 13.4472 19.8576 9.92209 19.8576L9.9221 6.7374Z" fill="#E06259"/>
    <path d="M9.9221 6.7374C6.20114 6.73741 3.1847 9.67446 3.1847 13.2975C3.1847 16.9205 6.20114 19.8576 9.9221 19.8576L9.9221 6.7374Z" fill="#FFC300"/>
    <path d="M0 0C5.48352 0 9.92879 4.44527 9.92879 9.92879V35.6874C9.92879 38.4292 7.70616 40.6518 4.9644 40.6518C2.22264 40.6518 0 38.4292 0 35.6874V0Z" fill="#316BFF"/>
</svg>
