<svg viewBox="0 0 24 25" fill="none" xmlns="http://www.w3.org/2000/svg">
    <path d="M17.882 19.797C16.1232 20.9126 14.0827 21.5033 12 21.5C6.608 21.5 2.122 17.62 1.181 12.5C1.61103 10.1707 2.78263 8.0429 4.521 6.43401L1.392 3.30801L2.807 1.89301L22.606 21.693L21.191 23.107L17.881 19.797H17.882ZM5.935 7.85001C4.576 9.0856 3.62932 10.7088 3.223 12.5C3.53529 13.8665 4.16226 15.1411 5.054 16.2226C5.94574 17.304 7.07763 18.1624 8.35955 18.7293C9.64148 19.2962 11.038 19.5561 12.4381 19.4881C13.8381 19.4202 15.203 19.0264 16.424 18.338L14.396 16.31C13.5327 16.8538 12.5102 17.0881 11.4962 16.9744C10.4823 16.8608 9.53704 16.4059 8.81557 15.6844C8.0941 14.963 7.63923 14.0177 7.52556 13.0038C7.4119 11.9898 7.64618 10.9673 8.19 10.104L5.935 7.85001ZM12.914 14.828L9.672 11.586C9.49406 12.0389 9.45219 12.534 9.55151 13.0104C9.65082 13.4867 9.88702 13.9238 10.2311 14.2679C10.5752 14.612 11.0123 14.8482 11.4887 14.9475C11.965 15.0468 12.4601 15.0049 12.913 14.827L12.914 14.828ZM20.807 17.092L19.376 15.662C20.0445 14.7093 20.5204 13.6352 20.777 12.5C20.5052 11.3097 19.9943 10.1872 19.2751 9.2005C18.556 8.21385 17.6438 7.38373 16.5939 6.76061C15.544 6.13749 14.3783 5.73437 13.1677 5.57577C11.9572 5.41717 10.727 5.50638 9.552 5.83801L7.974 4.26001C9.221 3.77001 10.58 3.50001 12 3.50001C17.392 3.50001 21.878 7.38001 22.819 12.5C22.5126 14.1657 21.8239 15.7376 20.807 17.092ZM11.723 8.00801C12.3595 7.96867 12.9971 8.06507 13.5935 8.29082C14.19 8.51657 14.7316 8.86652 15.1825 9.31746C15.6335 9.7684 15.9834 10.31 16.2092 10.9065C16.4349 11.5029 16.5313 12.1405 16.492 12.777L11.722 8.00801H11.723Z" fill="#9EA2AD"/>
</svg>
