<svg viewBox="0 0 24 25" fill="none" xmlns="http://www.w3.org/2000/svg">
<path d="M7 4.5V20.5H17V4.5H7ZM6 2.5H18C18.2652 2.5 18.5196 2.60536 18.7071 2.79289C18.8946 2.98043 19 3.23478 19 3.5V21.5C19 21.7652 18.8946 22.0196 18.7071 22.2071C18.5196 22.3946 18.2652 22.5 18 22.5H6C5.73478 22.5 5.48043 22.3946 5.29289 22.2071C5.10536 22.0196 5 21.7652 5 21.5V3.5C5 3.23478 5.10536 2.98043 5.29289 2.79289C5.48043 2.60536 5.73478 2.5 6 2.5ZM12 17.5C12.2652 17.5 12.5196 17.6054 12.7071 17.7929C12.8946 17.9804 13 18.2348 13 18.5C13 18.7652 12.8946 19.0196 12.7071 19.2071C12.5196 19.3946 12.2652 19.5 12 19.5C11.7348 19.5 11.4804 19.3946 11.2929 19.2071C11.1054 19.0196 11 18.7652 11 18.5C11 18.2348 11.1054 17.9804 11.2929 17.7929C11.4804 17.6054 11.7348 17.5 12 17.5Z" fill="#000"/>
</svg>
