<svg viewBox="0 0 24 24" fill="none" xmlns="http://www.w3.org/2000/svg">
    <path d="M23 13.6849C21.7323 11.5203 19.9292 10.5648 18.9608 10.1858C20.4618 7.4809 19.858 4.56566 19.858 4.56566C17.6908 4.16261 15.931 4.83153 14.9625 5.3491C14.6227 4.24528 13.8169 2.39386 11.9994 1C11.9994 1 9.80352 2.4627 9.03462 5.34727C8.06522 4.83037 6.30629 4.16244 4.14144 4.56566C4.14144 4.56566 3.5376 7.4809 5.03856 10.1851C4.07022 10.5643 2.26773 11.5196 1 13.6836C1 13.6836 2.48261 15.9609 5.15853 16.6652C4.73534 17.7433 4.23436 19.6421 4.69499 21.9259C4.69499 21.9259 7.87021 22.541 10.4179 20.2267C10.4179 20.2267 7.25598 19.7744 5.61916 15.7189C5.20484 14.5844 4.83758 12.6558 5.63628 10.2233C5.98534 9.27448 6.90401 7.44706 9.02087 6.26707C9.62914 5.93635 11.6696 5.02839 14.2897 5.92618C16.9042 7.06118 17.9792 9.1768 18.3642 10.2226C19.163 12.655 18.7962 14.5837 18.3813 15.7182C16.7445 19.7738 13.5826 20.226 13.5826 20.226C16.1303 22.5405 19.3055 21.9252 19.3055 21.9252C19.7667 19.6419 19.2657 17.7433 18.8425 16.6657C21.5174 15.9622 23 13.6849 23 13.6849Z" fill="#434E6A"/>
    <path d="M12 7.5C8.6543 7.5 7 9.72609 7 12.4718C7 15.2175 12 21.5 12 21.5C12 21.5 17 15.218 17 12.4718C17 9.7256 15.3457 7.5 12 7.5ZM12 14.1817C10.5273 14.1817 9.33339 13.0419 9.33339 11.6361C9.33339 10.2303 10.5275 9.09055 12 9.09055C13.4725 9.09055 14.6666 10.2303 14.6666 11.6361C14.6666 13.0419 13.472 14.1817 12 14.1817Z" fill="#434E6A"/>
</svg>
