<svg viewBox="0 0 24 25" fill="none" xmlns="http://www.w3.org/2000/svg">
<path d="M3.34006 17.5C2.91733 16.769 2.58873 15.9875 2.36206 15.174C2.85537 14.9231 3.26965 14.5406 3.55909 14.0689C3.84852 13.5972 4.00183 13.0546 4.00203 12.5011C4.00224 11.9477 3.84934 11.4049 3.56026 10.933C3.27118 10.4611 2.85718 10.0783 2.36406 9.827C2.8161 8.19248 3.67679 6.69995 4.86506 5.49C5.32915 5.79172 5.86768 5.95916 6.42104 5.97378C6.9744 5.9884 7.52101 5.84963 8.00039 5.57283C8.47977 5.29603 8.87321 4.892 9.13719 4.40544C9.40116 3.91888 9.52537 3.36877 9.49606 2.816C11.1382 2.39162 12.8613 2.39231 14.5031 2.818C14.474 3.37076 14.5985 3.92079 14.8626 4.40721C15.1268 4.89363 15.5204 5.29747 15.9999 5.57406C16.4794 5.85064 17.026 5.98919 17.5793 5.97435C18.1327 5.95951 18.6711 5.79188 19.1351 5.49C19.7141 6.08 20.2281 6.751 20.6601 7.5C21.0931 8.249 21.4171 9.03 21.6381 9.826C21.1448 10.0769 20.7305 10.4594 20.441 10.9311C20.1516 11.4028 19.9983 11.9454 19.9981 12.4989C19.9979 13.0523 20.1508 13.595 20.4399 14.067C20.7289 14.5389 21.1429 14.9217 21.6361 15.173C21.184 16.8075 20.3233 18.3 19.1351 19.51C18.671 19.2083 18.1324 19.0408 17.5791 19.0262C17.0257 19.0116 16.4791 19.1504 15.9997 19.4272C15.5204 19.704 15.1269 20.108 14.8629 20.5946C14.599 21.0811 14.4748 21.6312 14.5041 22.184C12.862 22.6084 11.1388 22.6077 9.49706 22.182C9.52611 21.6292 9.40166 21.0792 9.13748 20.5928C8.8733 20.1064 8.4797 19.7025 8.00023 19.4259C7.52076 19.1494 6.97412 19.0108 6.42079 19.0256C5.86746 19.0405 5.32902 19.2081 4.86506 19.51C4.27405 18.9069 3.76166 18.2316 3.34006 17.5ZM9.00006 17.696C10.0657 18.3106 10.8669 19.297 11.2501 20.466C11.7491 20.513 12.2501 20.514 12.7491 20.467C13.1325 19.2978 13.9341 18.3114 15.0001 17.697C16.0653 17.0807 17.3206 16.8795 18.5251 17.132C18.8151 16.724 19.0651 16.289 19.2731 15.834C18.4525 14.9174 17.9992 13.7302 18.0001 12.5C18.0001 11.24 18.4701 10.063 19.2731 9.166C19.0636 8.71115 18.8125 8.27663 18.5231 7.868C17.3193 8.12031 16.0649 7.91948 15.0001 7.304C13.9344 6.68937 13.1332 5.70298 12.7501 4.534C12.2511 4.487 11.7501 4.486 11.2511 4.533C10.8677 5.70215 10.0661 6.68856 9.00006 7.303C7.93484 7.91931 6.67954 8.12052 5.47506 7.868C5.18563 8.27628 4.93519 8.71086 4.72706 9.166C5.54763 10.0826 6.00094 11.2698 6.00006 12.5C6.00006 13.76 5.53006 14.937 4.72706 15.834C4.93653 16.2888 5.1876 16.7234 5.47706 17.132C6.68078 16.8797 7.93527 17.0805 9.00006 17.696ZM12.0001 15.5C11.2044 15.5 10.4413 15.1839 9.87874 14.6213C9.31613 14.0587 9.00006 13.2956 9.00006 12.5C9.00006 11.7043 9.31613 10.9413 9.87874 10.3787C10.4413 9.81607 11.2044 9.5 12.0001 9.5C12.7957 9.5 13.5588 9.81607 14.1214 10.3787C14.684 10.9413 15.0001 11.7043 15.0001 12.5C15.0001 13.2956 14.684 14.0587 14.1214 14.6213C13.5588 15.1839 12.7957 15.5 12.0001 15.5ZM12.0001 13.5C12.2653 13.5 12.5196 13.3946 12.7072 13.2071C12.8947 13.0196 13.0001 12.7652 13.0001 12.5C13.0001 12.2348 12.8947 11.9804 12.7072 11.7929C12.5196 11.6054 12.2653 11.5 12.0001 11.5C11.7348 11.5 11.4805 11.6054 11.293 11.7929C11.1054 11.9804 11.0001 12.2348 11.0001 12.5C11.0001 12.7652 11.1054 13.0196 11.293 13.2071C11.4805 13.3946 11.7348 13.5 12.0001 13.5Z" fill="#000"/>
</svg>
