<svg viewBox="0 0 24 25" fill="none" xmlns="http://www.w3.org/2000/svg">
<path d="M11 1.043C11.33 1.014 11.663 1 12 1C18.351 1 23.5 6.149 23.5 12.5C23.5 12.837 23.486 13.17 23.457 13.5H21.951C21.449 18.553 17.185 22.5 12 22.5C6.477 22.5 2 18.023 2 12.5C2 7.315 5.947 3.051 11 2.55V1.042V1.043ZM11 13.5V4.562C8.98271 4.81868 7.13885 5.83387 5.84319 7.40122C4.54752 8.96857 3.89728 10.9705 4.02462 13C4.15196 15.0296 5.04733 16.9345 6.52874 18.3276C8.01016 19.7207 9.96645 20.4975 12 20.5C13.9486 20.5 15.8302 19.7888 17.2917 18.5C18.7533 17.2112 19.6942 15.4333 19.938 13.5H11ZM21.448 11.5C21.2187 9.3379 20.255 7.31979 18.7176 5.78239C17.1802 4.24498 15.1621 3.28126 13 3.052V11.5H21.448Z" fill="#000"/>
</svg>
